<svg width="57" height="51" viewBox="0 0 57 51" fill="none" xmlns="http://www.w3.org/2000/svg">
<path d="M50.3125 6.5625H42.7328L39.0059 0.973438C38.8062 0.674165 38.5358 0.428758 38.2186 0.258961C37.9014 0.089163 37.5473 0.000216029 37.1875 0H19.6875C19.3277 0.000216029 18.9736 0.089163 18.6564 0.258961C18.3392 0.428758 18.0688 0.674165 17.8691 0.973438L14.1395 6.5625H6.5625C4.82202 6.5625 3.15282 7.2539 1.92211 8.48461C0.691404 9.71532 0 11.3845 0 13.125V43.75C0 45.4905 0.691404 47.1597 1.92211 48.3904C3.15282 49.6211 4.82202 50.3125 6.5625 50.3125H50.3125C52.053 50.3125 53.7222 49.6211 54.9529 48.3904C56.1836 47.1597 56.875 45.4905 56.875 43.75V13.125C56.875 11.3845 56.1836 9.71532 54.9529 8.48461C53.7222 7.2539 52.053 6.5625 50.3125 6.5625ZM38.2812 27.3438C38.2812 29.2907 37.7039 31.1938 36.6223 32.8126C35.5406 34.4314 34.0032 35.6931 32.2045 36.4382C30.4058 37.1832 28.4266 37.3782 26.5171 36.9984C24.6076 36.6185 22.8536 35.681 21.4769 34.3043C20.1002 32.9277 19.1627 31.1737 18.7829 29.2642C18.4031 27.3547 18.598 25.3754 19.3431 23.5767C20.0881 21.778 21.3498 20.2406 22.9686 19.159C24.5874 18.0773 26.4906 17.5 28.4375 17.5C31.0482 17.5 33.552 18.5371 35.3981 20.3832C37.2441 22.2292 38.2812 24.733 38.2812 27.3438Z" fill="white"/>
</svg>
