<svg width="35" height="35" viewBox="0 0 35 35" fill="none" xmlns="http://www.w3.org/2000/svg">
<path d="M11.6667 24.7917V29.1667H23.3334V18.9584H11.6667V24.7917ZM8.75008 21.8751V18.9584H5.83341V16.0417H8.75008V13.1251H5.83341V21.8751H8.75008ZM8.75008 24.7917H5.83341V26.2501C5.83341 27.0236 6.14071 27.7655 6.68769 28.3125C7.23467 28.8595 7.97653 29.1667 8.75008 29.1667V24.7917ZM29.1667 21.8751V13.1251H26.2501V16.0417H29.1667V18.9584H26.2501V21.8751H29.1667ZM29.1667 24.7917H26.2501V29.1667C27.0236 29.1667 27.7655 28.8595 28.3125 28.3125C28.8595 27.7655 29.1667 27.0236 29.1667 26.2501V24.7917ZM23.3334 13.1251V5.83341H11.6667V16.0417H23.3334V13.1251ZM29.1667 10.2084V8.75008C29.1667 7.97653 28.8595 7.23467 28.3125 6.68769C27.7655 6.14071 27.0236 5.83341 26.2501 5.83341V10.2084H29.1667ZM8.75008 10.2084V5.83341C7.97653 5.83341 7.23467 6.14071 6.68769 6.68769C6.14071 7.23467 5.83341 7.97653 5.83341 8.75008V10.2084H8.75008ZM8.75008 2.91675H26.2501C27.7972 2.91675 29.2809 3.53133 30.3749 4.62529C31.4688 5.71925 32.0834 7.20298 32.0834 8.75008V26.2501C32.0834 27.7972 31.4688 29.2809 30.3749 30.3749C29.2809 31.4688 27.7972 32.0834 26.2501 32.0834H8.75008C7.20298 32.0834 5.71925 31.4688 4.62529 30.3749C3.53133 29.2809 2.91675 27.7972 2.91675 26.2501V8.75008C2.91675 7.20298 3.53133 5.71925 4.62529 4.62529C5.71925 3.53133 7.20298 2.91675 8.75008 2.91675Z" fill="black"/>
</svg>
