<svg width="20" height="20" viewBox="0 0 45 45" fill="none" xmlns="http://www.w3.org/2000/svg">
<path d="M17.4765 5.69092C17.39 5.69086 17.303 5.69361 17.2155 5.69918C15.8167 5.78839 14.3989 6.71291 13.895 8.06669C10.9004 16.1115 9.40509 19.3927 8.48971 27.6554C9.77581 28.841 11.2697 29.9801 12.9062 31.0062L18.7427 13.7386L20.2973 14.2632L14.3508 31.8604C16.0655 32.8163 17.9042 33.6387 19.8 34.258L26.4276 16.5454L27.9657 17.1193L21.3794 34.7222C23.0892 35.1701 24.8251 35.4429 26.5456 35.5023L33.5167 19.8193L35.0191 20.4868L28.3504 35.4858C30.2681 35.3771 32.1477 34.9789 33.9259 34.2308C37.733 29.4984 40.3096 24.5818 41.3526 19.0529C41.8002 16.6806 40.0552 14.3838 36.5872 14.2356L36.0462 14.2109L35.8539 13.7055C35.1113 11.7378 34.1181 11.0606 33.0854 10.8517C32.0527 10.6428 30.8646 10.9866 29.9681 11.5L28.8199 12.1565L28.7402 10.8381C28.6532 9.39709 27.8312 8.23684 26.6034 7.70695C25.3755 7.17697 23.6973 7.24711 21.7859 8.5776L20.8685 9.2148L20.5335 8.14913C19.9607 6.32399 18.775 5.68951 17.4766 5.69083L17.4765 5.69092ZM9.07735 16.5537C6.2528 20.5179 4.19485 26.3285 4.51819 31.6104C6.9387 33.5299 9.3179 34.5717 11.555 34.7251C12.7991 34.8103 14.0106 34.6297 15.1941 34.1592C12.0788 32.6444 9.27378 30.6846 7.05595 28.5755L6.76213 28.2981L6.80608 27.8942C7.31531 23.092 8.0318 19.8522 9.07752 16.5537H9.07735Z" fill="white"/>
</svg>
